<svg xmlns="http://www.w3.org/2000/svg" version="1.1" xmlns:xlink="http://www.w3.org/1999/xlink" xmlns:svgjs="http://svgjs.dev/svgjs" width="512" height="512"><svg id="SvgjsSvg1156" data-name="Layer 4" xmlns="http://www.w3.org/2000/svg" viewBox="0 0 512 512">
  <defs>
    <style>
      .cls-1 {
        fill: #de9e94;
      }
    </style>
  </defs>
  <path class="cls-1" d="M407.34,488.94c5.66-.63,31.51-1.15,24.79,9.42-117.98,78.28-234.24-207.8-264.42-167.41-20.26,25.89-31.59,104.09-38.98,143.94-3.23,24.64-1.93,45.2-27.76,33.27-34.23-21.83,7.16-116.51,20.1-160.34,3.36-24.22,136.84-367.79,137.41-257.69-24.88,63.56-62.67,135-87.22,198.11-6.18,20.84,38.98,8.96,48.22,4.49,125.9-61.64,275.83-150.07,203.72-223.25-14.32-14.53-33.35-23.3-53.42-26.94-98.02-17.78-234.24,32.53-286.6,105.82-6.86,9.6-10.09,21.31-9.58,33.1.31,7.18-.23,13.79-6.04,16.11-37.74-10.41-27.33-60.85-1.71-85.73,315.4-279.24,638.25,30.98,161.76,207.08-12.91,15.13,120.01,174.65,179.71,169.99Z"></path>
</svg><style>@media (prefers-color-scheme: light) { :root { filter: none; } }
@media (prefers-color-scheme: dark) { :root { filter: none; } }
</style></svg>