<?xml version="1.0" encoding="UTF-8"?>
<svg id="Layer_4" data-name="Layer 4" xmlns="http://www.w3.org/2000/svg" viewBox="0 0 751.71 189.43">
  <defs>
    <style>
      .cls-1 {
        fill: #de9e94;
      }
    </style>
  </defs>
  <path id="circle" class="cls-1" d="M655.6,0c-53.08,0-96.11,42.41-96.11,94.71s43.03,94.71,96.11,94.71,96.11-42.41,96.11-94.71S708.68,0,655.6,0ZM655.6,184.21c-50.15,0-90.81-40.07-90.81-89.5S605.45,5.22,655.6,5.22s90.81,40.07,90.81,89.5-40.66,89.5-90.81,89.5ZM655.6,10.76c-47.05,0-85.19,37.59-85.19,83.95s38.14,83.95,85.19,83.95,85.19-37.59,85.19-83.95-38.14-83.95-85.19-83.95ZM682.86,134.99c1.09-.12,6.08-.22,4.78,1.82-22.75,15.09-45.16-40.06-50.98-32.27-3.91,4.99-6.09,20.07-7.51,27.75-.62,4.75-.37,8.71-5.35,6.41-6.6-4.21,1.38-22.46,3.87-30.91.65-4.67,26.38-70.9,26.49-49.68-4.8,12.25-12.08,26.03-16.81,38.19-1.19,4.02,7.52,1.73,9.3.87,24.27-11.88,53.18-28.93,39.28-43.04-2.76-2.8-6.43-4.49-10.3-5.19-18.9-3.43-45.16,6.27-55.25,20.4-1.32,1.85-1.95,4.11-1.85,6.38.06,1.39-.04,2.66-1.16,3.11-7.28-2.01-5.27-11.73-.33-16.53,60.8-53.83,123.05,5.97,31.19,39.92-2.49,2.92,23.14,33.67,34.65,32.77Z"/>
  <g id="thin">
    <path class="cls-1" d="M52.21,142.64c-12.65,0-22.22-5.78-25.59-15.46-.82-2.16-2.34-2.47-3.18-2.47-.26,0-.53.03-.81.09-2.17.55-7.65,1.8-13.09,1.8-1.45,0-2.77-.09-3.94-.27,5.51-.51,10.97-1.76,16.24-3.71,1.94-.62,3.07-2.19,2.96-4.12-.92-17.51,2.86-32.55,12.26-48.77l.09-.15c6-10.61,26.66-31.23,43.13-31.23.45,0,.89.02,1.32.05,6.48.48,11.5,5.69,12.41,12.13,3.68,26.24-34.24,56.09-55.3,67.43-1.41.73-2.58,2.43-1.58,4.99,3.45,9.46,11.19,14.9,21.21,14.9,8.48,0,17.19-4.07,23.05-10.59-5.27,10.62-18.32,15.4-29.19,15.4h0ZM80.35,45.2c-1.21,0-2.33.35-3.05.64-25.47,11.25-41.54,42.5-42.27,65.67-.03.86.12,1.71.4,2.53v.03c.19.51.71.82,1.24.73h0c.96-.16,1.88-.5,2.7-1.02,19.26-12.45,41.33-38.22,45.8-60.9.5-2-.09-5.64-2.21-6.93-.71-.49-1.58-.74-2.6-.74Z"/>
    <path class="cls-1" d="M86.45,136.77c0-.07-.01-.15-.01-.25,0-.66.25-1.41.74-2.23,3-4.72,6.29-11.71,9.75-20.72,3.44-8.95,6.41-18.23,8.82-27.57,2.43-9.44,3.67-17.36,3.67-23.56,0-3.17-.38-5.93-1.13-8.18l-.04-.11c-.35-.88-.48-1.31-.52-1.49.03-.04.1-.15.25-.3.1-.1.56-.44,2.02-.44,1.69,0,3.25.46,4.77,1.41,1.45.91,2.53,2.37,3.3,4.48.32.9.6,2.24.84,3.97.54,3.95.56,8.09.07,12.29-.18,1.55-.54,4-1.06,7.28-1.42,8.92-3.75,17.51-6.92,25.53-.95,2.41-1.81,4.36-2.54,5.8l-.06.13c-6.85,13.38-14.23,21.44-21.93,23.97Z"/>
    <path class="cls-1" d="M115.12,142.68c-1.61,0-3.22-.36-4.8-1.07.28-.2.7-.44,1.27-.68,12.41-5.51,19.38-21.56,24.98-34.47,1.11-2.55,2.16-4.96,3.19-7.17.8-.98,1.23-1.06,1.23-1.06,1.63.55,3.44,8.92,4.03,11.67.34,1.57.63,2.93.92,3.9,3.07,12.26,9.04,14.84,13.51,14.84,9.9,0,20.29-12.67,23.46-24.08,4.69-12.79,3.57-26.03-2.99-35.43-5.28-7.57-13.4-11.74-22.87-11.74-4.25,0-8.72.85-13.28,2.52-3.35,1.04-5.99,2.36-9.39,4.72-.13.08-.36.24-.64.43-2.62,1.78-4.52,2.87-5.68,3.27,5.94-11.6,20.53-15.76,32.36-15.76,4.75,0,9.39.66,13.44,1.91,12.34,3.45,20.54,12.57,23.16,25.68,3.59,18.02-4.03,39.73-17.73,50.54-4.87,3.38-11.15,5.32-17.24,5.32-5.29,0-10.1-1.43-13.92-4.14l-.16-.1c-1.15-.66-2.48-2.25-3.64-3.65-1.25-1.5-2.32-2.79-3.5-3.48l-.18-.09c-.52-.24-1.06-.36-1.6-.36-2.25,0-3.67,2-4.6,3.32-.12.17-.42.58-.42.58-3.55,5.45-10.72,14.59-18.87,14.59Z"/>
    <path class="cls-1" d="M240.43,142.18c1.7-1.52,3.18-3.19,4.4-4.96,1.37-1.99,2.07-4.54,2.07-7.57,0-4.32-1.59-8.04-4.73-11.05-2.99-2.86-6.62-4.82-10.78-5.82-5.2-1.24-6.3-1.48-6.67-1.56-.94-.17-1.69-.52-2.33-1.09-.48-.42-.69-.84-.69-1.41h0s.11-.19.54-.47c.86-.56,2.02-1.13,3.44-1.71,1.56-.64,2.85-1.21,3.83-1.69l.21-.12c5.18-3.45,9.47-6.55,12.75-9.2,3.05-2.46,5.79-5.41,8.17-8.78,2.92-4.14,4.73-9,4.83-14.06.12-6-1.9-10.68-5.99-13.9-3.83-3.02-8.61-4.54-14.18-4.54-4.95,0-10.12,1.18-15.39,3.52-5.14,2.28-10.05,5.44-14.61,9.39.1-.29.24-.67.43-1.14,2.64-5.03,7.13-9.06,13.36-11.99,6.39-3,13.34-4.53,20.67-4.53,8.13,0,15.05,1.88,20.58,5.58,5.35,3.58,7.94,8.62,7.94,15.4,0,6.2-2.14,12.55-6.35,18.87-4.13,6.19-10.3,12.25-18.36,18.04-.67.48-1.3,1.02-1.87,1.62l-.75.79.56.52c.76.71,1.63,1.29,2.52,1.82,1.43.85,3.16,2.52,4.49,3.92,1.85,1.96,3.35,4.23,4.28,6.76.09.24.17.53.25.85.47,1.91.5,3.89.16,5.83-.05.29-.13.62-.24.98-1.24,4.16-4.12,7.61-7.83,9.86-1.36.82-2.74,1.52-3.79,1.73l-.91.1Z"/>
    <path class="cls-1" d="M304.16,151.1c-1.11,0-2.21-.06-3.26-.17-.39-.04-.72-.09-1-.14,1.85-.99,5.05-2.19,6.32-2.67l1.06-.4c.58-.22,14.37-5.57,27.96-17.65,15.45-13.73,19.67-32.27,21.27-39.25,1.72-7.53,1.96-23.05,1.96-23.05l-.12-4.42-1.6.76c-2.04.97-3.93,2.23-5.63,3.73-2.5,2.21-6.05,5.51-7.7,7.83-.13.17-.35.34-.64.49-.04.02-.08.04-.12.06l.08-1.21c.08-1.22.36-2.43.86-3.54,2.59-5.75,6.82-9.06,12.61-12.8.55-.35,1-.83,1.3-1.41h0c.33-.63.48-1.33.42-2.04-.18-2.07-.56-4.88-1.15-8.38l-.03-.16c-.17-.7-.28-1.15-.35-1.45.08,0,.18-.01.3-.01,1.03,0,3.86.07,6.57,6.34.15.35.43.85.69,1.29.42.71,1.2,1.12,2.03,1.07.58-.04,1.17-.17,1.61-.3,4.18-1.25,8.49-1.88,12.81-1.88.31,0,.63,0,.95.01,4.44.1,12.71.27,20.89,5.91,1.03.71,2.05,1.52,3.05,2.41,5.06,4.53,8.56,10.6,10.11,17.54.85,3.77,1.32,7.32,1.37,10.24,0,6.98-1.59,14.27-4.73,21.65-3.13,7.36-7.41,13.53-12.71,18.34-5.09,4.61-10.48,6.91-16.47,7.02.14-.12.29-.24.46-.38,7.32-5.54,12.61-12.47,15.71-20.57,1.93-4.55,3.58-9.16,4.86-13.63,1.3-4.56,1.96-9.33,1.96-14.18,0-8.8-2.86-15.72-8.5-20.55-5.55-4.76-12.48-7.17-20.59-7.17-2.66,0-5.35.27-8.01.79-.87.17-1.64.7-2.14,1.44h0c-.48.7-.67,1.56-.56,2.4.44,3.44.67,6.93.66,10.4-.07,27.01-13.95,46.66-19.91,53.85-1.12,1.34-11.34,13.35-26.45,20.57-.07.03-7.65,3.27-16.19,3.27Z"/>
    <path class="cls-1" d="M423.37,87.8c2.02-2.49,3.29-4.45,3.84-5.92,1.29-2.94,2.39-6.26,3.26-9.88.89-3.68,1.34-7.24,1.34-10.59s-.48-6.41-1.44-9.02l.13-.03c1.08-.29,2.06-.44,2.9-.44,2.21,0,4.02.73,5.53,2.24,1.6,1.6,2.72,3.83,3.32,6.64.43,1.64.64,3.37.64,5.24,0,4.71-1.67,9.59-4.98,14.49-1.71,2.4-4.06,4.32-6.97,5.64-2.59,1.18-5.26,1.9-7.96,2.14.11-.16.24-.33.37-.51Z"/>
    <path class="cls-1" d="M432.52,136.77c0-.07-.01-.15-.01-.25,0-.66.25-1.41.74-2.23,3-4.72,6.29-11.71,9.75-20.72,3.44-8.95,6.41-18.23,8.82-27.57,2.51-9.72,3.67-17.28,3.67-23.56,0-3.17-.38-5.93-1.13-8.18l-.04-.11c-.35-.88-.48-1.31-.52-1.49.03-.04.1-.15.25-.3.1-.1.56-.44,2.02-.44,1.69,0,3.25.46,4.77,1.41,1.45.91,2.53,2.37,3.3,4.48.32.9.6,2.24.84,3.97.54,3.95.56,8.09.07,12.29-.18,1.55-.54,4-1.06,7.28-1.42,8.92-3.75,17.51-6.92,25.53-.95,2.41-1.81,4.36-2.54,5.8l-.06.13c-6.85,13.38-14.23,21.44-21.93,23.97Z"/>
    <path class="cls-1" d="M508.13,136.4c1.48-2.77,3.68-5.35,6.01-8.08,2.43-2.85,4.95-5.8,6.71-9.12,7.25-12.44,12.48-30.99,5.29-45.52-4.56-9.66-15.39-15.68-28.26-15.68-3.47,0-6.84.46-10.03,1.36-1.76.29-4.31,1.42-7.24,2.72-2.74,1.22-6.08,2.7-7.96,3.01,1.74-5.37,10.4-10.78,16.45-12.5,4.06-1.19,8.34-1.79,12.72-1.79,16.97,0,31.6,8.72,37.25,22.21l.08.18c8.02,20.65-5.71,46.77-23.63,60.06-1.37,1.06-5.33,3.08-7.42,3.29.01-.04.02-.08.04-.12ZM471.83,65.13h0Z"/>
  </g>
</svg>