<?xml version="1.0" encoding="UTF-8"?>
<svg id="Ravit_Dabush_Logo" data-name="Ravit Dabush Logo" xmlns="http://www.w3.org/2000/svg" viewBox="0 0 874.31 224.85">
  <defs>
    <style>
      .cls-1 {
        fill: #4c3b35;
      }

      .cls-2 {
        fill: #de9e94;
      }
    </style>
  </defs>
  <path id="Ravit_Dabush" data-name="Ravit Dabush" class="cls-2" d="M300.09,109.19c93-36.76,53.04-96.39-13.9-66.77-14.73,8.65-33.87,22.88-26.08,35.32,3.82,4.64,8.78,4.7,7.26-1.79,2.19-15.19,20.98-26.25,37.72-31.31-5.56,13.68-17.64,31.66-24.32,52.84-3.39,12.25-15.94,42.37-9.92,48.92,1.71,1.64,6.22,2.82,6.76-.39-.15-2.84,5.88-35.69,11.55-33.29,9.79,8.82,43.19,45.55,58.09,35.23,2.46-1.8,6.05-4.45,3.61-6.93-2.65-.9-5.98,1.97-8.74,1.94-10.28-1.1-16.74-9.62-26.25-16.89-.74-1.65-19.73-15.05-15.79-16.89ZM290.62,104.66c.51-8.89,6.87-21.62,10.26-30.78,4.95-11.38,7.28-14.5,10.6-21.39,2-2.35-.77-7.23-2.09-8.27-.37-.34-.19-.95.31-1.03,10.65-2.33,17.44-3.25,29.34,2.73,24.27,19.63-11.04,43.93-48.41,58.75ZM490.62,71.96c-.08.01-.18.01-.26-.05-.07-.05-.11-.13-.12-.22-.11-1.11,4.99-9.67,5.72-11.21,1.72-3.98-.71-7.1-3.91-6.09-2.01.45-3.69,1.81-4.55,3.68-.81,1.76-1.72,3.74-2.33,5.13-.29.74-.94,2.17-1.62,3.64-1.8,3.9-3.7,7.29-7.75,8.75-.2.07-.45.14-.7.21-.86.22-1.73.34-2.62.41-1.62.11-5.98.08-6.94.16-.81.06-1.43.76-1.19,1.54.02.07.05.15.08.24.71,1.87,2.39,3.19,4.36,3.57,1.78.34,3.99.59,5.55.19.8-.21,1.58.34,1.31,1.11l-9.74,26.27c-.56,1.58-1.43,3.02-2.56,4.25-2.97,3.24-6.4,6.62-10.32,10.01-2.82,2.44-5.59,4.61-8.25,6.54-1.14.74-2.54.46-3.13-.4-.41-.6-.41-1.44-.04-2.17,2.81-7.11,8.25-20.07,10.38-25.54.27-.69,1.01-2.47.56-3.81-.91-2.75-4.64-3.52-6.58-1.36-.07.08-1.02,1.37-1.07,1.45-1.82,2.64-5.2,7.14-7.87,8.37-2.13.98-6.86,1.04-6.18-1.19,1.02-3.33,3-8.51,3.97-11.66.12-.4.07-.85-.1-1.3-.89-2.36-4.05-2.9-5.79-1.07-.64.67-1.18,1.39-1.4,2.03-.24.73-.68,2.6-.77,3.22-.6,4.19-1.84,9.52-4.45,15.29-4.21,9.29-10.04,15.39-13.77,18.73-.21.35-.62.53-1.02.43-.37-.09-.68-.4-.69-.86l-.02-4.42c-.02-6.14.46-11.94,2.14-17.85l-.1.31c.27-.94,3.68-13.54,3.37-14.69-.25-.95-1.06-1.64-2.03-1.75-.37-.07-.93-.13-1.58.04-1.6.41-2.32,1.84-2.45,2.1,0,0,0,0,0,0-2.31,6.66-4.92,11.92-6.99,15.64,0,0-8.45,15.19-19.63,20.19-.47.21-1.68.75-2.44.22-.45-.32-.59-.9-.64-1.34.26-4.62,1.92-12.04,3.95-16.2.78-1.6,1.64-3.43,2.52-5.55,2.17-5.27-.49-11.29-5.85-13.22-10.26-3.66-22.4,6.67-26.43,10.98-.94,1-5.47,5.94-8.37,13.87-1.17,3.19-1.77,5.99-2.1,7.99-.26,1.62-.16,3.28.39,4.83s1.5,3.2,3.31,4.63c1.96,1.56,4.62,1.93,6.99,1.12,2.5-.86,5.64-2.28,8.81-4.7,4.53-3.45,7.12-7.39,8.47-9.89.09-.16.34-.11.35.08.14,1.71.29,3.42.43,5.14.17,2,.87,3.95,2.17,5.48.71.84,1.5,1.49,2.29,1.99,2.64,1.68,6,1.77,8.85.49,2.03-.92,4.35-2.18,6.71-3.93,4.55-3.37,9.3-12.23,9.23-9.2-.08,3.35.04,7.77.66,10.24,1.29,5.17,7.5,7.17,11.6,3.77,3-2.49,6.47-7.18,9.63-11.39,3.78-5.02,6.18-9.87,7.71-13.71.3-.75,1.04-1.22,1.84-1.18,2.6.14,5.2.27,7.8.4.36.02.61.35.53.7-1.35,2.99-2.74,6.88-3.55,11.56-.31,1.8-.5,3.49-.6,5.07-.13,2.01.4,4.04,1.65,5.63.26.33.55.65.88.96,1.48,1.37,3.4,2.17,5.48,2.36,2.33.22,4.67-.46,6.64-1.72,1.85-1.18,3.83-2.59,5.85-4.28,3.91-3.27,6.84-6.61,8.98-9.46.03-.04.09-.02.08.03-.31,1.82-.49,4.63.54,7.72.3.89.65,1.68,1.02,2.36.39.95,1.86,4.16,5.52,6.17.49.27.97.49,1.45.68,3.39,1.32,7.23.61,10.14-1.59,1.6-1.21,3.22-2.53,4.85-3.99,5.28-4.71,12.12-14.27,15.58-19.32,1.44-2.1,2.29-4.54,2.45-7.08-.06-.68-.78-1.1-1.4-.82-1.54,1.06-2.9,2.35-4.04,3.83-2.54,3.3-7.4,9.49-10.54,12.7-3.66,3.74-7.27,6.9-10.64,9.55-.72.62-2.05,1.55-3.47,1.31-2.27-.39-4.31-3.71-3.76-8.15h0c1.52-7.41,3.79-15.93,7.23-25.12,1.26-3.37,3.39-8.63,4.9-12.33,1.15-2.8,3.01-5.25,5.4-7.11l.04-.03c1.32-.73,3.33-1.71,5.89-2.48,4.46-1.34,10.46-1.73,12.81-1.5,1.37.13,2.61.36,3.71.65,2.31.61,4.25,1.94,7.09,1.22h0c.28-.1.75-.31,1.11-.77.92-1.16.28-2.72.25-2.8-.11-.25-.37-.64-.67-1.05-.21-.3-.54-.62-.92-.94-1.96-1.64-5.43-2.54-7.98-2.69-1.16-.07-2.39-.09-3.27.01-7.5.89-10.29,1.32-11.73,1.49-2.45.29-4.27.46-4.36.47ZM368.71,112.29c-4.43,5.88-9.3,11.19-13.8,15.35-2.02,1.8-6.72,6.61-8.18,1.98-1.81-10.26,15.29-28.62,24.9-30.96l.18-.04c6.35-1.37,5.6,1.19,3.42,4.49-1.49,2.4-4.78,6.86-6.53,9.18ZM456.25,80.69c-5.08.22-5.91-7.7-1.26-9.87,7.3-2.32,7.02,7.95,1.26,9.87ZM560.88,89.28c6.35-16.7,12.94-32.41,19.59-47.1.02-.05-.02-.1-.07-.08-6.25,1.86-14.33,4.97-22.91,10.32-5.84,3.65-10.59,7.5-14.32,10.99-1.43,1.33-3.67,1.24-4.99-.2l-.05-.05c-.23-.25-.42-.53-.58-.82-.87-1.63-.41-3.65.9-4.95,5.2-5.14,14.15-12.63,27.16-17.94,12.95-5.28,24.45-6.18,31.45-6.19,1.67.01,22.07.54,33.68,18.1,8.1,12.25,6.52,27.65,1.94,41.32-2.92,8.71-13,28.24-34.61,43.7-18.14,12.98-36.19,16.76-45.94,18.01-2.43.31-4.92.15-7.23-.67-1.61-.57-3.37-1.49-5.03-2.98-1.83-1.64-2.97-3.49-3.68-5.1-.98-2.22-.65-4.79.86-6.68,3.19-4,8.1-9.11,15.17-13.49,10.35-6.41,20.21-8.09,25.55-8.61.88-.25,1.75.09,2.08.69.42.78-.04,2.05-1.23,2.45-3.54.91-7.53,2.24-11.73,4.22-11.19,5.29-18.64,12.71-23.03,18-1.13,1.05-1.24,2.87-.1,4.05.65.67,1.61.92,2.53.8,8.5-1.09,34.82-5.15,56.7-27.2,14.56-14.68,20.65-30.73,23.23-39.39.46-1.33,5.14-15.8-3.97-28.16-9.05-12.28-26.51-11.43-31.64-10.9-.83.09-1.52.64-1.78,1.43-.87,2.69-2.39,6.46-4.26,11.03-8.46,20.68-12.44,28.46-19.51,47.69-1.67,4.53-4.09,11.53-6.38,20.44-1.79,8.54-2.18,12.51-2.04,14.4.03.45.18,1.84-.68,2.74-.67.71-1.69.83-2.32.84-.4-.02-4.4-.29-6.48-3.68-.1-.16-.19-.33-.28-.49-.89-1.73-.95-3.76-.35-5.61,4.24-13.16,9.01-26.83,14.37-40.93ZM725.93,95.49c-1.74-3.54-6.29-4.52-7.44-4.77-6.64-1.43-15.9,5.83-23.43,17.76-.08.06-.18.06-.26,0-.07-.05-.12-.15-.09-.25l17.95-58.61c.13-.43.16-.89.07-1.33h0c-.26-1.29-1.41-2.21-2.72-2.17l-.98.02c-1.11.03-2.72,1.7-3.1,2.75-1.9,5.25-7.14,21.01-9.78,29.05-4.79,14.63-9.84,29.72-10.88,31.59,0,0-7.17,15.27-18.35,20.27-.47.21-1.68.75-2.44.22-.45-.32-.59-.9-.64-1.34.26-4.62,1.92-12.04,3.95-16.2.78-1.6,1.64-3.43,2.52-5.55,2.17-5.27-.49-11.29-5.85-13.22-10.26-3.66-22.4,6.67-26.43,10.98-.94,1-5.47,5.94-8.37,13.87-1.17,3.2-1.78,6-2.1,8-.26,1.61-.16,3.27.39,4.81.53,1.48,1.5,3.2,3.31,4.63,1.96,1.56,4.62,1.93,7,1.12,2.5-.86,5.64-2.28,8.81-4.7,4.53-3.45,7.12-7.39,8.47-9.89.09-.17.34-.11.36.08.14,1.71.29,3.42.43,5.13.18,2.18,1.02,4.28,2.51,5.87.62.66,1.28,1.19,1.95,1.61,2.64,1.68,6,1.77,8.85.49.25-.11.55-.26.87-.43,3.54-1.87,6.63-4.48,9.16-7.58l2.94-3.61s.07-.01.07.03l-.75,10.04c-.09,1.42.47,2.85,1.6,3.71,1.27.98,2.97,1.2,4.45.61,0,0,0,0,0,0l1.21-1.01c.31-.12.65-.13.96-.02.55.47,1.29,1.01,2.24,1.46.63.3,1.36.48,2.1.59,2.12.3,4.28-.04,6.27-.84,2.6-1.05,5.12-2.46,8.17-4.73,14.02-10.41,16.91-27.19,17.57-33.68.11-1.1.34-2.92-.55-4.74ZM656.09,112.29c-4.43,5.88-9.3,11.19-13.8,15.35-2.02,1.8-6.72,6.61-8.18,1.98-1.81-10.26,15.29-28.62,24.9-30.96l.18-.04c6.35-1.37,5.6,1.19,3.42,4.49-1.49,2.4-4.78,6.86-6.53,9.18ZM718.4,99.64c-1.15,6.27-3.55,12.24-7.09,17.53-4.98,7.45-12.42,16.65-18.24,15.58-.6-.11-.93-.75-.75-1.33,3.08-9.92,12.91-27.92,24.79-35.63.77-.5,1.78.07,1.76.99,0,.24-.2,1.38-.47,2.86ZM737.76,95.56c1.73-3.06,6.14-2.36,7.33.95.64,1.45.54,2.94-.08,4.34-3.95,9.16-9.06,18.24-11.28,27.72-.32,9.67,13.56-8.7,16-11.44,4.01-5.19,7.14-10.27,9.57-14.84,1.4-3.56,4.92-9.63,8.9-5.15,2.25,2.73.39,5.83-.76,8.52-1.79,4.51-7.74,24.37.83,23.5,7.9-3.75,16.13-21,21.85-29.48,4.4-6.98,7.47-10.69,16.1-12.43,3.01-.86,6.56,1.91,3.9,4.6-7.17,2.13-15.84,10.49-15.02,18.17,4.47,10.23,8.45,30.14-7.45,30.67-12.68-.56-12.13-9.05-.94-12.8,11.53-6.33,24.88-10.4,29.98-23.43,6.56-19.89,14.75-42.15,24.78-62.09,2.37-4.96,9.1-1.39,6.55,3.45-8.42,18.38-22.54,52.13-23.83,70.45,6.52-9.24,19.98-27.22,28.64-15.64,2.68,6.27.53,13.44.76,20.51.41,2.25-1.74,8.34,2.37,5.25,5.79-2.48,15.1-14.45,16.07-16.48,10.85-.12-20.17,40.24-26.72,17.49-.38-7.76.54-15.61.64-23.37.04-.44,0-1.29-.55-.95-3.63,2.76-9.87,9.3-13.33,14.76-8.09,11.53-9.26,23.57-16.31,22.98-3.11-.44-4.75-3.77-4.62-6.65,3.01-33.38,7.57-14.74-26.9-1.35-1.51.85-1.01,2.62.68,3.01,14.02,2.16,8.28-17.27,4.21-24.12-6.48,5.62-8.74,15.56-15.07,21.09-9.56,7.96-19.34-3.61-17.74-13.62-.02-.64-.4-.91-.87-.23-2.37,4.08-6.22,10.89-12.27,14.95-5.19,4.51-15.93,5.05-16.97-3.47.05-12.62,6.38-23.33,11.54-34.88Z"/>
  <path id="circle" class="cls-2" d="M114.08,0C51.08,0,0,50.33,0,112.43s51.08,112.43,114.08,112.43,114.08-50.33,114.08-112.43S177.08,0,114.08,0ZM114.08,218.66c-59.53,0-107.79-47.56-107.79-106.23S54.55,6.19,114.08,6.19s107.79,47.56,107.79,106.23-48.26,106.23-107.79,106.23ZM114.08,12.77C58.23,12.77,12.96,57.39,12.96,112.43s45.27,99.65,101.12,99.65,101.12-44.62,101.12-99.65S169.92,12.77,114.08,12.77ZM146.44,160.23c1.29-.14,7.21-.26,5.67,2.16-27,17.91-53.6-47.55-60.51-38.31-4.64,5.92-7.23,23.82-8.92,32.94-.74,5.64-.44,10.34-6.35,7.61-7.83-5,1.64-26.66,4.6-36.69.77-5.54,31.31-84.16,31.44-58.97-5.69,14.55-14.34,30.89-19.96,45.34-1.42,4.77,8.92,2.05,11.04,1.03,28.81-14.1,63.12-34.34,46.62-51.09-3.28-3.33-7.63-5.33-12.22-6.17-22.43-4.07-53.6,7.44-65.58,24.22-1.57,2.2-2.31,4.88-2.19,7.57.07,1.64-.05,3.16-1.38,3.69-8.64-2.38-6.25-13.92-.39-19.62,72.17-63.9,146.05,7.09,37.02,47.39-2.95,3.46,27.46,39.97,41.12,38.9Z"/>
  <path id="slogen" class="cls-1" d="M276.63,204.12v-25.56h3.59v25.56h-3.59ZM278.37,181.97v-3.41h14.68v3.41h-14.68ZM278.37,193.13v-3.41h12.74v3.41h-12.74ZM278.37,204.12v-3.41h14.68v3.41h-14.68ZM303.99,204.12v-18.25h3.59v18.25h-3.59ZM314.89,204.12v-11.06c0-1.29-.32-2.29-.95-2.99s-1.53-1.05-2.69-1.05-2.08.31-2.72.93-.96,1.49-.96,2.62l-.37-3.52c.56-1.1,1.3-1.95,2.21-2.55s1.91-.9,3.01-.9c1.92,0,3.41.65,4.46,1.94s1.58,3.13,1.58,5.49v11.07h-3.59ZM325.79,204.12v-11.06c0-1.29-.33-2.29-.99-2.99s-1.6-1.05-2.82-1.05c-1.11,0-1.97.34-2.58,1.02s-.91,1.64-.91,2.88l-.72-3.52c.59-1.22,1.35-2.16,2.29-2.81s1.97-.98,3.11-.98c1.98,0,3.51.65,4.6,1.94s1.63,3.13,1.63,5.49v11.07h-3.59ZM348.01,204.38c-2.39,0-4.24-.69-5.55-2.08s-1.97-3.34-1.97-5.86v-2.97c0-2.5.66-4.43,1.97-5.8s3.16-2.06,5.55-2.06,4.24.69,5.55,2.06,1.97,3.3,1.97,5.8v3.02c0,2.51-.66,4.45-1.97,5.83s-3.16,2.07-5.55,2.07ZM348.01,200.97c1.25,0,2.22-.39,2.91-1.18s1.03-1.89,1.03-3.3v-3.02c0-1.42-.34-2.51-1.03-3.29s-1.66-1.16-2.91-1.16-2.21.39-2.9,1.16-1.04,1.87-1.04,3.29v3.02c0,1.42.35,2.52,1.04,3.3s1.66,1.18,2.9,1.18ZM365.42,189.11v-3.23h8.23v3.23h-8.23ZM371.57,204.21c-1.5,0-2.59-.42-3.26-1.25s-1.01-2.03-1.01-3.59v-18.81h3.59v18.84c0,.43.09.77.26,1.02s.43.37.77.37h1.72v3.41h-2.07ZM384.76,182.15v-3.59h3.59v3.59h-3.59ZM384.76,204.12v-18.25h3.59v18.25h-3.59ZM406.98,204.38c-2.39,0-4.24-.69-5.55-2.08s-1.97-3.34-1.97-5.86v-2.97c0-2.5.66-4.43,1.97-5.8s3.16-2.06,5.55-2.06,4.24.69,5.55,2.06,1.97,3.3,1.97,5.8v3.02c0,2.51-.66,4.45-1.97,5.83s-3.16,2.07-5.55,2.07ZM406.98,200.97c1.25,0,2.22-.39,2.91-1.18s1.03-1.89,1.03-3.3v-3.02c0-1.42-.34-2.51-1.03-3.29s-1.66-1.16-2.91-1.16-2.21.39-2.9,1.16-1.04,1.87-1.04,3.29v3.02c0,1.42.35,2.52,1.04,3.3s1.66,1.18,2.9,1.18ZM425.79,204.12v-18.25h3.59v18.25h-3.59ZM436.87,204.12v-11.06c0-1.29-.33-2.29-.99-2.99s-1.6-1.05-2.82-1.05-2.08.31-2.72.93-.96,1.49-.96,2.62l-.37-3.52c.56-1.1,1.3-1.95,2.21-2.55s1.91-.9,3.01-.9c1.98,0,3.51.65,4.6,1.94s1.63,3.13,1.63,5.49v11.07h-3.59ZM451.48,204.12v-3.76h3.76v3.76h-3.76ZM721.63,204.38c-1.78,0-3.34-.4-4.68-1.19s-2.37-1.9-3.11-3.33-1.11-3.1-1.11-5.01v-7.01c0-1.92.37-3.6,1.11-5.03s1.78-2.54,3.11-3.33,2.89-1.19,4.68-1.19c1.48,0,2.83.32,4.05.95s2.25,1.52,3.08,2.65,1.39,2.47,1.68,3.99h-3.67c-.22-.82-.59-1.54-1.12-2.15s-1.13-1.09-1.84-1.43-1.43-.51-2.18-.51c-1.57,0-2.83.55-3.79,1.66s-1.43,2.57-1.43,4.39v7.01c0,1.82.48,3.28,1.43,4.38s2.22,1.65,3.79,1.65c1.11,0,2.16-.35,3.15-1.05s1.65-1.72,1.99-3.04h3.67c-.29,1.52-.86,2.85-1.69,3.99s-1.86,2.02-3.08,2.65c-1.22.63-2.57.95-4.04.95ZM748.95,204.38c-2.39,0-4.24-.69-5.55-2.08s-1.97-3.34-1.97-5.86v-2.97c0-2.5.66-4.43,1.97-5.8s3.16-2.06,5.55-2.06,4.24.69,5.55,2.06,1.97,3.3,1.97,5.8v3.02c0,2.51-.66,4.45-1.97,5.83s-3.16,2.07-5.55,2.07ZM748.95,200.97c1.25,0,2.22-.39,2.91-1.18s1.03-1.89,1.03-3.3v-3.02c0-1.42-.34-2.51-1.03-3.29s-1.66-1.16-2.91-1.16-2.21.39-2.9,1.16-1.04,1.87-1.04,3.29v3.02c0,1.42.35,2.52,1.04,3.3s1.66,1.18,2.9,1.18ZM774.12,204.44c-2.02,0-3.57-.65-4.67-1.94s-1.64-3.12-1.64-5.48v-4.03c0-2.37.54-4.2,1.61-5.49s2.58-1.94,4.53-1.94c1.08,0,2.07.28,2.96.84s1.62,1.35,2.17,2.37l-.37,3.73c0-.77-.14-1.44-.42-1.99s-.69-.97-1.22-1.26-1.18-.43-1.94-.43c-1.18,0-2.1.37-2.75,1.11-.65.74-.98,1.78-.98,3.11v3.97c0,1.32.33,2.35.98,3.07s1.57,1.08,2.75,1.08c.76,0,1.41-.15,1.94-.45s.94-.73,1.22-1.29.42-1.24.42-2.02l.25,3.85c-.33.82-.89,1.56-1.7,2.21s-1.85.98-3.14.98ZM778.71,204.12v-25.56h3.59v25.56h-3.59ZM801.98,204.38c-2.54,0-4.51-.71-5.91-2.13s-2.09-3.43-2.09-6.05v-2.06c0-2.72.67-4.82,2.01-6.31s3.23-2.23,5.67-2.23c2.3,0,4.08.84,5.33,2.53s1.89,4.05,1.89,7.1v1.2h-12.3v-2.88h8.89c-.11-1.48-.49-2.63-1.15-3.46s-1.55-1.25-2.66-1.25c-1.35,0-2.4.45-3.15,1.34s-1.12,2.15-1.12,3.78v2.32c0,1.51.4,2.67,1.2,3.48s1.93,1.21,3.38,1.21c.73,0,1.45-.15,2.16-.44s1.35-.7,1.92-1.23l2.36,2.36c-.9.87-1.92,1.54-3.04,2.01s-2.26.71-3.39.71ZM819.26,204.12v-3.76h3.76v3.76h-3.76ZM481.47,204.12v-25.56h3.59v25.56h-3.59ZM483.31,194.21v-3.41h8.17c1.17,0,2.11-.4,2.82-1.21s1.06-1.87,1.06-3.18-.35-2.41-1.06-3.22c-.71-.81-1.65-1.21-2.82-1.21h-8.17v-3.41h8.05c1.55,0,2.89.33,4.04.98s2.04,1.56,2.68,2.73.96,2.55.96,4.13-.32,2.94-.96,4.11-1.53,2.08-2.68,2.72-2.5.97-4.04.97h-8.05ZM508.41,204.12v-18.25h3.59v18.25h-3.59ZM518.44,190.2c-.32-.39-.71-.68-1.2-.88s-1.04-.3-1.67-.3c-1.14,0-2.02.31-2.65.94s-.94,1.5-.94,2.61l-.37-3.52c.55-1.08,1.27-1.92,2.17-2.53s1.88-.91,2.96-.91c.83,0,1.58.12,2.26.36s1.26.59,1.77,1.06l-2.34,3.16ZM536.65,204.38c-2.54,0-4.51-.71-5.91-2.13s-2.09-3.43-2.09-6.05v-2.06c0-2.72.67-4.82,2.01-6.31s3.23-2.23,5.67-2.23c2.3,0,4.08.84,5.33,2.53s1.89,4.05,1.89,7.1v1.2h-12.3v-2.88h8.89c-.11-1.48-.49-2.63-1.15-3.46s-1.55-1.25-2.66-1.25c-1.35,0-2.4.45-3.15,1.34s-1.12,2.15-1.12,3.78v2.32c0,1.51.4,2.67,1.2,3.48s1.93,1.21,3.38,1.21c.73,0,1.45-.15,2.16-.44s1.35-.7,1.92-1.23l2.36,2.36c-.9.87-1.92,1.54-3.04,2.01s-2.26.71-3.39.71ZM561.6,204.38c-2.51,0-4.45-.69-5.83-2.07-1.38-1.38-2.07-3.33-2.07-5.85v-3.01c0-2.5.69-4.43,2.07-5.79s3.32-2.05,5.83-2.05c1.43,0,2.72.25,3.87.76s2.06,1.22,2.74,2.16l-2.58,2.32c-.5-.59-1.1-1.04-1.79-1.35s-1.42-.47-2.18-.47c-1.38,0-2.46.39-3.22,1.16s-1.14,1.86-1.14,3.27v3.01c0,1.44.38,2.55,1.14,3.34s1.83,1.18,3.22,1.18c.76,0,1.49-.17,2.18-.51s1.29-.82,1.79-1.44l2.58,2.5c-.68.91-1.6,1.62-2.75,2.12s-2.44.75-3.86.75ZM577.93,182.15v-3.59h3.59v3.59h-3.59ZM577.93,204.12v-18.25h3.59v18.25h-3.59ZM599.18,204.38c-1.62,0-3.08-.24-4.4-.71s-2.5-1.19-3.54-2.14l2.13-2.62c1,.75,1.98,1.31,2.94,1.69s1.92.56,2.87.56c1.42,0,2.48-.22,3.19-.66s1.06-1.1,1.06-1.98c0-.68-.24-1.16-.71-1.44s-1.1-.47-1.86-.55-1.59-.16-2.47-.22c-.74-.06-1.47-.15-2.2-.27s-1.39-.35-1.99-.67-1.08-.8-1.43-1.43c-.36-.63-.54-1.48-.54-2.55,0-1.93.59-3.38,1.78-4.34s2.95-1.44,5.29-1.44c1.43,0,2.76.19,3.99.58s2.38.98,3.46,1.78l-2.16,2.62c-.91-.59-1.81-1.03-2.7-1.32-.88-.29-1.75-.44-2.59-.44-1.22,0-2.13.21-2.74.62s-.91,1.04-.91,1.87c0,.55.21.95.63,1.19s.98.4,1.67.47,1.44.13,2.23.19c.76.05,1.53.13,2.31.25s1.5.36,2.15.71,1.18.87,1.58,1.56.6,1.63.6,2.83c0,1.96-.64,3.42-1.91,4.39s-3.18,1.46-5.74,1.46ZM617.15,182.15v-3.59h3.59v3.59h-3.59ZM617.15,204.12v-18.25h3.59v18.25h-3.59ZM638.94,204.38c-2.39,0-4.24-.69-5.55-2.08s-1.97-3.34-1.97-5.86v-2.97c0-2.5.66-4.43,1.97-5.8s3.16-2.06,5.55-2.06,4.24.69,5.55,2.06,1.97,3.3,1.97,5.8v3.02c0,2.51-.66,4.45-1.97,5.83s-3.16,2.07-5.55,2.07ZM638.94,200.97c1.25,0,2.22-.39,2.91-1.18s1.03-1.89,1.03-3.3v-3.02c0-1.42-.34-2.51-1.03-3.29s-1.66-1.16-2.91-1.16-2.21.39-2.9,1.16-1.04,1.87-1.04,3.29v3.02c0,1.42.35,2.52,1.04,3.3s1.66,1.18,2.9,1.18ZM657.33,204.12v-18.25h3.59v18.25h-3.59ZM668.4,204.12v-11.06c0-1.29-.33-2.29-.99-2.99s-1.6-1.05-2.82-1.05-2.08.31-2.72.93-.96,1.49-.96,2.62l-.37-3.52c.56-1.1,1.3-1.95,2.21-2.55s1.91-.9,3.01-.9c1.98,0,3.51.65,4.6,1.94s1.63,3.13,1.63,5.49v11.07h-3.59ZM682.58,204.12v-3.76h3.76v3.76h-3.76Z"/>
</svg>