<?xml version="1.0" encoding="UTF-8"?>
<svg id="Layer_4" data-name="Layer 4" xmlns="http://www.w3.org/2000/svg" viewBox="0 0 751.71 189.43">
  <defs>
    <style>
      .cls-1 {
        fill: #de9e94;
      }
    </style>
  </defs>
  <g id="english">
    <path id="circle" class="cls-1" d="M96.11,0C43.03,0,0,42.41,0,94.71s43.03,94.71,96.11,94.71,96.11-42.41,96.11-94.71S149.19,0,96.11,0ZM96.11,184.21c-50.15,0-90.81-40.07-90.81-89.5S45.95,5.22,96.11,5.22s90.81,40.07,90.81,89.5-40.66,89.5-90.81,89.5ZM96.11,10.76C49.06,10.76,10.92,48.35,10.92,94.71s38.14,83.95,85.19,83.95,85.19-37.59,85.19-83.95S143.16,10.76,96.11,10.76ZM123.37,134.99c1.09-.12,6.08-.22,4.78,1.82-22.75,15.09-45.16-40.06-50.98-32.27-3.91,4.99-6.09,20.07-7.51,27.75-.62,4.75-.37,8.71-5.35,6.41-6.6-4.21,1.38-22.46,3.87-30.91.65-4.67,26.38-70.9,26.49-49.68-4.8,12.25-12.08,26.03-16.81,38.19-1.19,4.02,7.52,1.73,9.3.87,24.27-11.88,53.18-28.93,39.28-43.04-2.76-2.8-6.43-4.49-10.3-5.19-18.9-3.43-45.16,6.27-55.25,20.4-1.32,1.85-1.95,4.11-1.85,6.38.06,1.39-.04,2.66-1.16,3.11-7.28-2.01-5.27-11.73-.33-16.53,60.8-53.83,123.05,5.97,31.19,39.92-2.49,2.92,23.14,33.67,34.65,32.77Z"/>
    <path id="Ravit_Dabush" data-name="Ravit Dabush" class="cls-1" d="M245.36,105.62c82.01-32.42,46.77-85-12.25-58.87-12.99,7.63-29.87,20.17-23,31.15,3.36,4.09,7.75,4.14,6.4-1.58,1.93-13.39,18.5-23.15,33.26-27.61-4.9,12.07-15.56,27.92-21.44,46.59-2.99,10.8-14.05,37.36-8.75,43.14,1.5,1.45,5.49,2.49,5.96-.34-.13-2.5,5.18-31.47,10.19-29.35,8.64,7.78,38.08,40.17,51.22,31.06,2.17-1.58,5.33-3.92,3.19-6.11-2.34-.8-5.27,1.74-7.71,1.71-9.06-.97-14.76-8.48-23.15-14.89-.65-1.46-17.4-13.27-13.92-14.89ZM237.01,101.62c.45-7.84,6.05-19.06,9.04-27.14,4.36-10.03,6.42-12.79,9.35-18.86,1.76-2.07-.68-6.37-1.85-7.3-.33-.3-.17-.84.27-.91,9.39-2.06,15.37-2.87,25.87,2.41,21.4,17.31-9.73,38.74-42.69,51.8ZM413.37,72.79c-.07,0-.16.01-.23-.04-.06-.04-.1-.11-.11-.19-.1-.98,4.4-8.52,5.04-9.88,1.52-3.51-.63-6.26-3.45-5.37-1.77.4-3.25,1.6-4.01,3.24-.72,1.55-1.52,3.3-2.05,4.52-.26.66-.83,1.92-1.43,3.21-1.59,3.44-3.27,6.42-6.83,7.71-.18.06-.39.13-.62.18-.76.19-1.53.3-2.31.36-1.42.1-5.27.07-6.12.14-.72.06-1.26.67-1.05,1.36.02.06.04.14.07.22.63,1.65,2.11,2.81,3.84,3.14,1.57.3,3.52.52,4.9.17.7-.18,1.4.3,1.15.98l-8.59,23.16c-.49,1.39-1.26,2.66-2.26,3.75-2.62,2.85-5.64,5.84-9.1,8.83-2.49,2.15-4.93,4.06-7.27,5.77-1.01.65-2.24.41-2.76-.35-.36-.53-.36-1.27-.03-1.91,2.48-6.27,7.27-17.7,9.15-22.52.24-.6.89-2.18.5-3.36-.81-2.42-4.09-3.1-5.8-1.2-.07.07-.9,1.21-.95,1.28-1.61,2.33-4.59,6.3-6.94,7.38-1.87.86-6.05.92-5.45-1.05.9-2.94,2.65-7.5,3.5-10.28.11-.35.06-.75-.09-1.15-.79-2.08-3.57-2.55-5.1-.94-.56.59-1.04,1.23-1.23,1.79-.21.64-.6,2.29-.68,2.84-.53,3.69-1.62,8.4-3.93,13.48-3.72,8.19-8.85,13.57-12.14,16.51-.18.31-.55.46-.9.38-.32-.08-.6-.35-.61-.76l-.02-3.9c-.02-5.42.41-10.53,1.89-15.74l-.09.27c.23-.83,3.24-11.94,2.97-12.95-.22-.84-.93-1.45-1.79-1.54-.32-.06-.82-.12-1.39.03-1.41.36-2.05,1.63-2.16,1.85,0,0,0,0,0,0-2.04,5.88-4.33,10.51-6.16,13.79,0,0-7.45,13.4-17.31,17.8-.42.19-1.48.66-2.15.19-.4-.28-.52-.8-.57-1.18.23-4.08,1.69-10.62,3.48-14.29.69-1.41,1.45-3.02,2.22-4.9,1.92-4.65-.43-9.96-5.16-11.66-9.04-3.23-19.75,5.88-23.31,9.69-.83.89-4.82,5.24-7.38,12.23-1.03,2.82-1.56,5.29-1.85,7.05-.23,1.43-.14,2.9.35,4.26s1.32,2.82,2.92,4.08c1.73,1.37,4.08,1.7,6.17.98,2.21-.76,4.97-2.01,7.77-4.15,3.99-3.04,6.28-6.52,7.47-8.72.08-.15.3-.1.31.07.13,1.51.26,3.02.38,4.53.15,1.76.77,3.49,1.92,4.83.63.74,1.32,1.31,2.02,1.76,2.33,1.48,5.29,1.56,7.8.43,1.79-.81,3.83-1.92,5.92-3.47,4.01-2.97,8.2-10.79,8.14-8.11-.07,2.95.04,6.85.58,9.03,1.14,4.56,6.61,6.33,10.23,3.32,2.65-2.2,5.7-6.33,8.5-10.04,3.33-4.43,5.45-8.71,6.8-12.09.26-.66.92-1.07,1.63-1.04,2.29.12,4.58.24,6.88.36.31.02.54.31.47.62-1.19,2.64-2.42,6.07-3.13,10.2-.27,1.58-.44,3.08-.53,4.47-.11,1.78.36,3.56,1.45,4.96.23.29.49.57.78.85,1.3,1.21,3,1.91,4.83,2.08,2.06.19,4.11-.4,5.86-1.51,1.63-1.04,3.38-2.29,5.16-3.78,3.45-2.88,6.03-5.83,7.92-8.34.03-.04.08-.02.07.03-.27,1.6-.43,4.08.48,6.81.26.78.58,1.48.9,2.08.35.84,1.64,3.67,4.86,5.44.43.24.86.43,1.28.6,2.99,1.16,6.38.54,8.94-1.4,1.41-1.07,2.84-2.23,4.28-3.52,4.66-4.16,10.69-12.59,13.74-17.04,1.27-1.85,2.02-4.01,2.16-6.24-.05-.6-.69-.97-1.24-.72-1.35.94-2.56,2.07-3.56,3.38-2.24,2.91-6.52,8.37-9.29,11.2-3.23,3.29-6.41,6.08-9.38,8.43-.63.55-1.81,1.37-3.06,1.15-2-.34-3.8-3.27-3.31-7.19h0c1.34-6.54,3.34-14.05,6.37-22.15,1.11-2.97,2.99-7.61,4.32-10.87,1.01-2.47,2.65-4.63,4.76-6.27l.03-.03c1.16-.64,2.93-1.51,5.2-2.19,3.94-1.18,9.23-1.53,11.3-1.33,1.2.12,2.3.32,3.27.58,2.03.54,3.75,1.71,6.25,1.07h0c.25-.09.66-.27.98-.68.81-1.02.25-2.4.22-2.47-.1-.22-.33-.56-.59-.93-.19-.26-.48-.54-.81-.83-1.72-1.45-4.79-2.24-7.03-2.37-1.03-.06-2.11-.08-2.89,0-6.61.79-9.08,1.16-10.35,1.32-2.16.26-3.76.4-3.84.41ZM305.87,108.36c-3.9,5.19-8.2,9.86-12.16,13.53-1.78,1.59-5.93,5.82-7.21,1.75-1.59-9.05,13.48-25.24,21.96-27.3l.16-.04c5.6-1.21,4.94,1.05,3.02,3.96-1.31,2.12-4.22,6.05-5.76,8.09ZM383.06,80.49c-4.48.19-5.21-6.79-1.11-8.71,6.44-2.04,6.19,7.01,1.11,8.71ZM475.32,88.06c5.6-14.72,11.41-28.57,17.27-41.54.02-.04-.02-.09-.06-.07-5.51,1.64-12.64,4.38-20.2,9.1-5.15,3.22-9.33,6.62-12.63,9.69-1.26,1.18-3.23,1.09-4.4-.18l-.04-.04c-.2-.22-.37-.47-.51-.73-.77-1.43-.36-3.22.79-4.36,4.59-4.53,12.48-11.14,23.95-15.82,11.42-4.66,21.56-5.45,27.73-5.46,1.47.01,19.46.48,29.7,15.96,7.14,10.8,5.75,24.38,1.71,36.44-2.57,7.68-11.46,24.9-30.52,38.53-16,11.44-31.92,14.78-40.51,15.88-2.14.28-4.34.13-6.37-.59-1.42-.5-2.97-1.31-4.44-2.63-1.61-1.45-2.62-3.07-3.25-4.5-.86-1.95-.57-4.22.76-5.89,2.81-3.53,7.14-8.03,13.38-11.9,9.12-5.65,17.82-7.14,22.53-7.6.77-.22,1.54.08,1.83.61.37.68-.03,1.81-1.09,2.16-3.13.8-6.64,1.97-10.35,3.72-9.87,4.66-16.44,11.21-20.31,15.87-.99.93-1.09,2.53-.09,3.57.57.59,1.42.81,2.23.7,7.5-.96,30.7-4.54,50-23.99,12.84-12.94,18.21-27.09,20.48-34.73.4-1.17,4.53-13.93-3.5-24.83-7.98-10.83-23.38-10.08-27.9-9.61-.73.08-1.34.57-1.57,1.26-.77,2.37-2.11,5.69-3.76,9.73-7.46,18.24-10.97,25.1-17.21,42.05-1.47,4-3.61,10.17-5.63,18.02-1.58,7.53-1.92,11.03-1.8,12.7.03.4.16,1.62-.6,2.42-.59.63-1.49.73-2.05.74-.35-.02-3.88-.26-5.72-3.24-.09-.14-.17-.29-.24-.43-.78-1.53-.83-3.32-.31-4.95,3.74-11.61,7.94-23.66,12.67-36.09ZM620.87,93.54c-1.53-3.12-5.55-3.99-6.56-4.21-5.85-1.26-14.02,5.14-20.66,15.66-.07.05-.16.05-.23,0-.06-.05-.1-.13-.08-.22l15.82-51.68c.12-.38.14-.78.06-1.17h0c-.23-1.14-1.24-1.95-2.4-1.92l-.86.02c-.98.02-2.4,1.5-2.73,2.43-1.68,4.63-6.3,18.52-8.62,25.62-4.23,12.9-8.68,26.21-9.59,27.85,0,0-6.32,13.47-16.18,17.87-.42.19-1.48.66-2.15.19-.4-.28-.52-.8-.57-1.18.23-4.08,1.69-10.62,3.48-14.29.69-1.41,1.45-3.02,2.22-4.9,1.92-4.65-.43-9.96-5.16-11.66-9.04-3.23-19.75,5.88-23.31,9.69-.83.89-4.82,5.24-7.38,12.23-1.03,2.82-1.57,5.29-1.85,7.05-.23,1.42-.14,2.89.35,4.24.46,1.3,1.32,2.82,2.92,4.09,1.73,1.37,4.08,1.7,6.17.98,2.21-.76,4.97-2.01,7.77-4.15,3.99-3.04,6.28-6.52,7.47-8.72.08-.15.3-.1.31.07.13,1.51.25,3.01.38,4.52.16,1.92.9,3.78,2.22,5.18.55.58,1.13,1.05,1.72,1.42,2.33,1.48,5.29,1.56,7.8.43.22-.1.48-.23.77-.38,3.12-1.65,5.85-3.95,8.08-6.68l2.6-3.19s.06,0,.06.02l-.66,8.85c-.08,1.25.41,2.51,1.41,3.27,1.12.86,2.62,1.06,3.92.53,0,0,0,0,0,0l1.07-.89c.27-.11.57-.11.84-.02.49.42,1.14.89,1.97,1.29.56.27,1.2.43,1.85.52,1.87.26,3.78-.03,5.53-.74,2.29-.93,4.51-2.17,7.2-4.17,12.36-9.18,14.91-23.98,15.49-29.7.1-.97.3-2.57-.49-4.18ZM559.28,108.36c-3.9,5.19-8.2,9.86-12.16,13.53-1.78,1.59-5.93,5.82-7.21,1.75-1.59-9.05,13.48-25.24,21.96-27.3l.16-.04c5.6-1.21,4.94,1.05,3.02,3.96-1.31,2.12-4.22,6.05-5.76,8.09ZM614.23,97.2c-1.01,5.53-3.13,10.79-6.25,15.46-4.39,6.57-10.95,14.68-16.09,13.74-.53-.1-.82-.66-.66-1.17,2.72-8.75,11.38-24.62,21.86-31.42.68-.44,1.57.06,1.55.87,0,.21-.18,1.22-.42,2.52ZM631.3,93.61c1.53-2.7,5.41-2.08,6.46.83.57,1.27.47,2.6-.07,3.82-3.48,8.08-7.99,16.08-9.95,24.44-.28,8.52,11.96-7.67,14.1-10.09,3.53-4.58,6.3-9.05,8.43-13.08,1.24-3.14,4.34-8.49,7.85-4.55,1.98,2.4.35,5.14-.67,7.51-1.58,3.98-6.83,21.49.74,20.72,6.97-3.31,14.22-18.52,19.27-26,3.88-6.15,6.59-9.43,14.19-10.96,2.66-.76,5.78,1.68,3.44,4.06-6.32,1.88-13.97,9.25-13.24,16.03,3.94,9.02,7.45,26.58-6.57,27.04-11.18-.49-10.7-7.98-.83-11.28,10.17-5.58,21.94-9.17,26.44-20.66,5.78-17.54,13.01-37.17,21.85-54.75,2.09-4.37,8.02-1.22,5.78,3.05-7.42,16.21-19.87,45.97-21.01,62.12,5.75-8.15,17.62-24,25.25-13.79,2.37,5.53.47,11.85.67,18.09.36,1.98-1.54,7.36,2.09,4.63,5.1-2.19,13.32-12.74,14.17-14.53,9.57-.11-17.78,35.49-23.56,15.43-.34-6.84.48-13.77.57-20.61.04-.39,0-1.14-.49-.84-3.2,2.43-8.7,8.2-11.75,13.02-7.13,10.17-8.17,20.78-14.38,20.27-2.74-.39-4.19-3.33-4.08-5.87,2.66-29.43,6.67-13-23.72-1.19-1.33.75-.89,2.31.6,2.65,12.36,1.9,7.3-15.23,3.71-21.27-5.71,4.95-7.71,13.72-13.29,18.6-8.43,7.02-17.06-3.18-15.64-12.01-.02-.56-.35-.8-.77-.2-2.09,3.6-5.49,9.6-10.82,13.18-4.58,3.98-14.04,4.45-14.96-3.06.05-11.13,5.63-20.57,10.18-30.76Z"/>
  </g>
</svg>