<?xml version="1.0" encoding="UTF-8"?>
<svg id="Layer_2" data-name="Layer 2" xmlns="http://www.w3.org/2000/svg" viewBox="0 0 228.16 224.85">
  <defs>
    <style>
      .cls-1 {
        fill: #de9e94;
      }
    </style>
  </defs>
  <path id="circle" class="cls-1" d="M114.08,0C51.08,0,0,50.33,0,112.43s51.08,112.43,114.08,112.43,114.08-50.33,114.08-112.43S177.08,0,114.08,0ZM114.08,218.66c-59.53,0-107.79-47.56-107.79-106.23S54.55,6.19,114.08,6.19s107.79,47.56,107.79,106.23-48.26,106.23-107.79,106.23ZM114.08,12.77C58.23,12.77,12.96,57.39,12.96,112.43s45.27,99.65,101.12,99.65,101.12-44.62,101.12-99.65S169.92,12.77,114.08,12.77ZM146.44,160.23c1.29-.14,7.21-.26,5.67,2.16-27,17.91-53.6-47.55-60.51-38.31-4.64,5.92-7.23,23.82-8.92,32.94-.74,5.64-.44,10.34-6.35,7.61-7.83-5,1.64-26.66,4.6-36.69.77-5.54,31.31-84.16,31.44-58.97-5.69,14.55-14.34,30.89-19.96,45.34-1.42,4.77,8.92,2.05,11.04,1.03,28.81-14.1,63.12-34.34,46.62-51.09-3.28-3.33-7.63-5.33-12.22-6.17-22.43-4.07-53.6,7.44-65.58,24.22-1.57,2.2-2.31,4.88-2.19,7.57.07,1.64-.05,3.16-1.38,3.69-8.64-2.38-6.25-13.92-.39-19.62,72.17-63.9,146.05,7.09,37.02,47.39-2.95,3.46,27.46,39.97,41.12,38.9Z"/>
</svg>