<?xml version="1.0" encoding="UTF-8"?>
<svg id="Layer_3" data-name="Layer 3" xmlns="http://www.w3.org/2000/svg" viewBox="0 0 616 121.28">
  <defs>
    <style>
      .cls-1 {
        fill: #de9e94;
      }
    </style>
  </defs>
  <path id="Ravit_Dabush" data-name="Ravit Dabush" class="cls-1" d="M41.78,75.94C134.78,39.18,94.82-20.45,27.88,9.18,13.15,17.83-5.99,32.05,1.8,44.5c3.82,4.64,8.78,4.7,7.26-1.79,2.19-15.19,20.98-26.25,37.72-31.31-5.56,13.68-17.64,31.66-24.32,52.84-3.39,12.25-15.94,42.37-9.92,48.92,1.71,1.64,6.22,2.82,6.76-.39-.15-2.84,5.88-35.69,11.55-33.29,9.79,8.82,43.19,45.55,58.09,35.23,2.46-1.8,6.05-4.45,3.61-6.93-2.65-.9-5.98,1.97-8.74,1.94-10.28-1.1-16.74-9.62-26.25-16.89-.74-1.65-19.73-15.05-15.79-16.89ZM32.31,71.41c.51-8.89,6.87-21.62,10.26-30.78,4.95-11.38,7.28-14.5,10.6-21.39,2-2.35-.77-7.23-2.09-8.27-.37-.34-.19-.95.31-1.03,10.65-2.33,17.44-3.25,29.34,2.73,24.27,19.63-11.04,43.93-48.41,58.75ZM232.31,38.71c-.08.01-.18.01-.26-.05-.07-.05-.11-.13-.12-.22-.11-1.11,4.99-9.67,5.72-11.21,1.72-3.98-.71-7.1-3.91-6.09-2.01.45-3.69,1.81-4.55,3.68-.81,1.76-1.72,3.74-2.33,5.13-.29.74-.94,2.17-1.62,3.64-1.8,3.9-3.7,7.29-7.75,8.75-.2.07-.45.14-.7.21-.86.22-1.73.34-2.62.41-1.62.11-5.98.08-6.94.16-.81.06-1.43.76-1.19,1.54.02.07.05.15.08.24.71,1.87,2.39,3.19,4.36,3.57,1.78.34,3.99.59,5.55.19.8-.21,1.58.34,1.31,1.11l-9.74,26.27c-.56,1.58-1.43,3.02-2.56,4.25-2.97,3.24-6.4,6.62-10.32,10.01-2.82,2.44-5.59,4.61-8.25,6.54-1.14.74-2.54.46-3.13-.4-.41-.6-.41-1.44-.04-2.17,2.81-7.11,8.25-20.07,10.38-25.54.27-.69,1.01-2.47.56-3.81-.91-2.75-4.64-3.52-6.58-1.36-.07.08-1.02,1.37-1.07,1.45-1.82,2.64-5.2,7.14-7.87,8.37-2.13.98-6.86,1.04-6.18-1.19,1.02-3.33,3-8.51,3.97-11.66.12-.4.07-.85-.1-1.3-.89-2.36-4.05-2.9-5.79-1.07-.64.67-1.18,1.39-1.4,2.03-.24.73-.68,2.6-.77,3.22-.6,4.19-1.84,9.52-4.45,15.29-4.21,9.29-10.04,15.39-13.77,18.73-.21.35-.62.53-1.02.43-.37-.09-.68-.4-.69-.86l-.02-4.42c-.02-6.14.46-11.94,2.14-17.85l-.1.31c.27-.94,3.68-13.54,3.37-14.69-.25-.95-1.06-1.64-2.03-1.75-.37-.07-.93-.13-1.58.04-1.6.41-2.32,1.84-2.45,2.1,0,0,0,0,0,0-2.31,6.66-4.92,11.92-6.99,15.64,0,0-8.45,15.19-19.63,20.19-.47.21-1.68.75-2.44.22-.45-.32-.59-.9-.64-1.34.26-4.62,1.92-12.04,3.95-16.2.78-1.6,1.64-3.43,2.52-5.55,2.17-5.27-.49-11.29-5.85-13.22-10.26-3.66-22.4,6.67-26.43,10.98-.94,1-5.47,5.94-8.37,13.87-1.17,3.19-1.77,5.99-2.1,7.99-.26,1.62-.16,3.28.39,4.83s1.5,3.2,3.31,4.63c1.96,1.56,4.62,1.93,6.99,1.12,2.5-.86,5.64-2.28,8.81-4.7,4.53-3.45,7.12-7.39,8.47-9.89.09-.16.34-.11.35.08.14,1.71.29,3.42.43,5.14.17,2,.87,3.95,2.17,5.48.71.84,1.5,1.49,2.29,1.99,2.64,1.68,6,1.77,8.85.49,2.03-.92,4.35-2.18,6.71-3.93,4.55-3.37,9.3-12.23,9.23-9.2-.08,3.35.04,7.77.66,10.24,1.29,5.17,7.5,7.17,11.6,3.77,3-2.49,6.47-7.18,9.63-11.39,3.78-5.02,6.18-9.87,7.71-13.71.3-.75,1.04-1.22,1.84-1.18,2.6.14,5.2.27,7.8.4.36.02.61.35.53.7-1.35,2.99-2.74,6.88-3.55,11.56-.31,1.8-.5,3.49-.6,5.07-.13,2.01.4,4.04,1.65,5.63.26.33.55.65.88.96,1.48,1.37,3.4,2.17,5.48,2.36,2.33.22,4.67-.46,6.64-1.72,1.85-1.18,3.83-2.59,5.85-4.28,3.91-3.27,6.84-6.61,8.98-9.46.03-.04.09-.02.08.03-.31,1.82-.49,4.63.54,7.72.3.89.65,1.68,1.02,2.36.39.95,1.86,4.16,5.52,6.17.49.27.97.49,1.45.68,3.39,1.32,7.23.61,10.14-1.59,1.6-1.21,3.22-2.53,4.85-3.99,5.28-4.71,12.12-14.27,15.58-19.32,1.44-2.1,2.29-4.54,2.45-7.08-.06-.68-.78-1.1-1.4-.82-1.54,1.06-2.9,2.35-4.04,3.83-2.54,3.3-7.4,9.49-10.54,12.7-3.66,3.74-7.27,6.9-10.64,9.55-.72.62-2.05,1.55-3.47,1.31-2.27-.39-4.31-3.71-3.76-8.15h0c1.52-7.41,3.79-15.93,7.23-25.12,1.26-3.37,3.39-8.63,4.9-12.33,1.15-2.8,3.01-5.25,5.4-7.11l.04-.03c1.32-.73,3.33-1.71,5.89-2.48,4.46-1.34,10.46-1.73,12.81-1.5,1.37.13,2.61.36,3.71.65,2.31.61,4.25,1.94,7.09,1.22h0c.28-.1.75-.31,1.11-.77.92-1.16.28-2.72.25-2.8-.11-.25-.37-.64-.67-1.05-.21-.3-.54-.62-.92-.94-1.96-1.64-5.43-2.54-7.98-2.69-1.16-.07-2.39-.09-3.27.01-7.5.89-10.29,1.32-11.73,1.49-2.45.29-4.27.46-4.36.47ZM110.4,79.05c-4.43,5.88-9.3,11.19-13.8,15.35-2.02,1.8-6.72,6.61-8.18,1.98-1.81-10.26,15.29-28.62,24.9-30.96l.18-.04c6.35-1.37,5.6,1.19,3.42,4.49-1.49,2.4-4.78,6.86-6.53,9.18ZM197.94,47.44c-5.08.22-5.91-7.7-1.26-9.87,7.3-2.32,7.02,7.95,1.26,9.87ZM302.57,56.03c6.35-16.7,12.94-32.41,19.59-47.1.02-.05-.02-.1-.07-.08-6.25,1.86-14.33,4.97-22.91,10.32-5.84,3.65-10.59,7.5-14.32,10.99-1.43,1.33-3.67,1.24-4.99-.2l-.05-.05c-.23-.25-.42-.53-.58-.82-.87-1.63-.41-3.65.9-4.95,5.2-5.14,14.15-12.63,27.16-17.94C320.26.91,331.76.01,338.76,0c1.67.01,22.07.54,33.68,18.1,8.1,12.25,6.52,27.65,1.94,41.32-2.92,8.71-13,28.24-34.61,43.7-18.14,12.98-36.19,16.76-45.94,18.01-2.43.31-4.92.15-7.23-.67-1.61-.57-3.37-1.49-5.03-2.98-1.83-1.64-2.97-3.49-3.68-5.1-.98-2.22-.65-4.79.86-6.68,3.19-4,8.1-9.11,15.17-13.49,10.35-6.41,20.21-8.09,25.55-8.61.88-.25,1.75.09,2.08.69.42.78-.04,2.05-1.23,2.45-3.54.91-7.53,2.24-11.73,4.22-11.19,5.29-18.64,12.71-23.03,18-1.13,1.05-1.24,2.87-.1,4.05.65.67,1.61.92,2.53.8,8.5-1.09,34.82-5.15,56.7-27.2,14.56-14.68,20.65-30.73,23.23-39.39.46-1.33,5.14-15.8-3.97-28.16-9.05-12.28-26.51-11.43-31.64-10.9-.83.09-1.52.64-1.78,1.43-.87,2.69-2.39,6.46-4.26,11.03-8.46,20.68-12.44,28.46-19.51,47.69-1.67,4.53-4.09,11.53-6.38,20.44-1.79,8.54-2.18,12.51-2.04,14.4.03.45.18,1.84-.68,2.74-.67.71-1.69.83-2.32.84-.4-.02-4.4-.29-6.48-3.68-.1-.16-.19-.33-.28-.49-.89-1.73-.95-3.76-.35-5.61,4.24-13.16,9.01-26.83,14.37-40.93ZM467.62,62.24c-1.74-3.54-6.29-4.52-7.44-4.77-6.64-1.43-15.9,5.83-23.43,17.76-.08.06-.18.06-.26,0-.07-.05-.12-.15-.09-.25l17.95-58.61c.13-.43.16-.89.07-1.33h0c-.26-1.29-1.41-2.21-2.72-2.17l-.98.02c-1.11.03-2.72,1.7-3.1,2.75-1.9,5.25-7.14,21.01-9.78,29.05-4.79,14.63-9.84,29.72-10.88,31.59,0,0-7.17,15.27-18.35,20.27-.47.21-1.68.75-2.44.22-.45-.32-.59-.9-.64-1.34.26-4.62,1.92-12.04,3.95-16.2.78-1.6,1.64-3.43,2.52-5.55,2.17-5.27-.49-11.29-5.85-13.22-10.26-3.66-22.4,6.67-26.43,10.98-.94,1-5.47,5.94-8.37,13.87-1.17,3.2-1.78,6-2.1,8-.26,1.61-.16,3.27.39,4.81.53,1.48,1.5,3.2,3.31,4.63,1.96,1.56,4.62,1.93,7,1.12,2.5-.86,5.64-2.28,8.81-4.7,4.53-3.45,7.12-7.39,8.47-9.89.09-.17.34-.11.36.08.14,1.71.29,3.42.43,5.13.18,2.18,1.02,4.28,2.51,5.87.62.66,1.28,1.19,1.95,1.61,2.64,1.68,6,1.77,8.85.49.25-.11.55-.26.87-.43,3.54-1.87,6.63-4.48,9.16-7.58l2.94-3.61s.07-.01.07.03l-.75,10.04c-.09,1.42.47,2.85,1.6,3.71,1.27.98,2.97,1.2,4.45.61,0,0,0,0,0,0l1.21-1.01c.31-.12.65-.13.96-.02.55.47,1.29,1.01,2.24,1.46.63.3,1.36.48,2.1.59,2.12.3,4.28-.04,6.27-.84,2.6-1.05,5.12-2.46,8.17-4.73,14.02-10.41,16.91-27.19,17.57-33.68.11-1.1.34-2.92-.55-4.74ZM397.78,79.05c-4.43,5.88-9.3,11.19-13.8,15.35-2.02,1.8-6.72,6.61-8.18,1.98-1.81-10.26,15.29-28.62,24.9-30.96l.18-.04c6.35-1.37,5.6,1.19,3.42,4.49-1.49,2.4-4.78,6.86-6.53,9.18ZM460.09,66.4c-1.15,6.27-3.55,12.24-7.09,17.53-4.98,7.45-12.42,16.65-18.24,15.58-.6-.11-.93-.75-.75-1.33,3.08-9.92,12.91-27.92,24.79-35.63.77-.5,1.78.07,1.76.99,0,.24-.2,1.38-.47,2.86ZM479.45,62.32c1.73-3.06,6.14-2.36,7.33.95.64,1.45.54,2.94-.08,4.34-3.95,9.16-9.06,18.24-11.28,27.72-.32,9.67,13.56-8.7,16-11.44,4.01-5.19,7.14-10.27,9.57-14.84,1.4-3.56,4.92-9.63,8.9-5.15,2.25,2.73.39,5.83-.76,8.52-1.79,4.51-7.74,24.37.83,23.5,7.9-3.75,16.13-21,21.85-29.48,4.4-6.98,7.47-10.69,16.1-12.43,3.01-.86,6.56,1.91,3.9,4.6-7.17,2.13-15.84,10.49-15.02,18.17,4.47,10.23,8.45,30.14-7.45,30.67-12.68-.56-12.13-9.05-.94-12.8,11.53-6.33,24.88-10.4,29.98-23.43,6.56-19.89,14.75-42.15,24.78-62.09,2.37-4.96,9.1-1.39,6.55,3.45-8.42,18.38-22.54,52.13-23.83,70.45,6.52-9.24,19.98-27.22,28.64-15.64,2.68,6.27.53,13.44.76,20.51.41,2.25-1.74,8.34,2.37,5.25,5.79-2.48,15.1-14.45,16.07-16.48,10.85-.12-20.17,40.24-26.72,17.49-.38-7.76.54-15.61.64-23.37.04-.44,0-1.29-.55-.95-3.63,2.76-9.87,9.3-13.33,14.76-8.09,11.53-9.26,23.57-16.31,22.98-3.11-.44-4.75-3.77-4.62-6.65,3.01-33.38,7.57-14.74-26.9-1.35-1.51.85-1.01,2.62.68,3.01,14.02,2.16,8.28-17.27,4.21-24.12-6.48,5.62-8.74,15.56-15.07,21.09-9.56,7.96-19.34-3.61-17.74-13.62-.02-.64-.4-.91-.87-.23-2.37,4.08-6.22,10.89-12.27,14.95-5.19,4.51-15.93,5.05-16.97-3.47.05-12.62,6.38-23.33,11.54-34.88Z"/>
</svg>